# xmcd CD database file
#
# Track frame offsets:
#	150
#	18409
#	42634
#	74539
#	99186
#	112885
#	137065
#	155387
#	177755
#	207420
#	229083
#	253048
#	280545
#	305700
#
# Disc length: 4389 seconds
#
# Revision: 0
# Processed by: cddbd v1.5.1PL2 Copyright (c) Steve Scherf et al.
# Submitted via: CDex 1.51
#
DISCID=bf11230e
DTITLE=Jazz - Compil 2
DYEAR=1900
DGENRE=Jazz
TTITLE0=Bley-Swallox - Duets - Walking batterie woman
TTITLE1=Brahem - Timar - Houdouth
TTITLE2=Coltrane - Giant Steps - Syeeda's song flute
TTITLE3=Davis - Kind Of Blue - Blue in green
TTITLE4=LesDoubleSix - A night in tunisia
TTITLE5=Ellington-Hodges - Back To Back - Royal garden blues
TTITLE6=Fitzgerald - Pour l'Amour d'Ella - Mr Paganini
TTITLE7=Fitzgeral-Armstrong - Porgy And Bess - Sommertime
TTITLE8=Flanagan - Jazz Poet - St Louis blues
TTITLE9=Getz - Samba - Samba triste
TTITLE10=Jamal - Live In Paris 92 - Caravan
TTITLE11=Linx - A Lover Question - A lover question Part 1
TTITLE12=Mingus - Tijuana Mood - Flamingo
TTITLE13=Rollins-Hawkins - Sonny Mettes Hawk - Yesterday
EXTD=
EXTT0=
EXTT1=
EXTT2=
EXTT3=
EXTT4=
EXTT5=
EXTT6=
EXTT7=
EXTT8=
EXTT9=
EXTT10=
EXTT11=
EXTT12=
EXTT13=
PLAYORDER=
